<?xml version="1.0" encoding="UTF-8"?>
<svg id="Layer_1" data-name="Layer 1" xmlns="http://www.w3.org/2000/svg" viewBox="0 0 1400 1415">
  <defs>
    <style>
      .cls-1 {
        stroke-width: 0px;
      }
    </style>
  </defs>
  <path class="cls-1" d="M32.67,345.72c.63-6.13,1.23-12.27,1.9-18.4,4.83-44.2,17.63-85.95,39.1-124.89,36.03-65.34,88.1-113.45,156.2-144.03,28.35-12.73,58.03-20.95,88.83-25.19,17.78-2.45,35.62-3.24,53.55-3.24,324.34.03,648.68.03,973.01.03,11.68,0,14.49,2.95,13.81,14.68-4.42,75.72-30.01,143.27-79.16,201.25-46.67,55.06-105.51,90.8-175.7,107.71-25.99,6.26-52.41,8.94-79.15,8.93-326.99-.03-653.98-.02-980.97-.02-6.66,0-8.39-1.2-10.74-7.42-.19-.5-.46-.97-.69-1.46,0-2.65,0-5.31,0-7.96Z"/>
  <path class="cls-1" d="M32.67,840.52c.63-5.9,1.24-11.81,1.88-17.71,4.86-44.76,17.94-86.97,39.81-126.34,34.41-61.95,83.61-108.39,147.49-139.1,31.87-15.32,65.47-24.94,100.56-29.36,15.38-1.94,30.8-2.68,46.29-2.68,215.54.02,431.09.01,646.63.01,9.54,0,11.56,2.07,11.05,11.49-3.41,63.8-22.55,122.43-59.17,174.85-50.02,71.59-118.08,116.61-203.4,135.39-23.39,5.15-47.13,7.28-71.06,7.28-216.76.02-433.52,0-650.28.08-4.5,0-7.5-1.74-9.81-5.29,0-2.87,0-5.75,0-8.62Z"/>
  <path class="cls-1" d="M32.67,1176.81c.87-6.43,1.48-12.92,2.67-19.29,8.08-43.3,29.92-78.16,65.12-104.49,23.37-17.48,49.75-28.17,78.78-31.18,54.34-5.64,101.17,10.84,139.49,49.96,24.77,25.29,39.37,55.9,44.75,90.87,10.19,66.13-22.33,133.88-80.2,167.58-28.34,16.5-58.84,24.02-91.54,22.87-74.25-2.62-139.61-57.54-155.16-130.32-1.64-7.68-2.89-15.4-3.38-23.24-.05-.75.08-1.57-.53-2.19,0-6.85,0-13.71,0-20.56Z"/>
</svg>