<?xml version="1.0" encoding="UTF-8"?>
<svg id="Layer_1" data-name="Layer 1" xmlns="http://www.w3.org/2000/svg" viewBox="0 0 1400 1415">
  <defs>
    <style>
      .cls-1 {
        fill: #f7f4f6;
      }

      .cls-1, .cls-2, .cls-3, .cls-4, .cls-5, .cls-6, .cls-7, .cls-8, .cls-9, .cls-10, .cls-11, .cls-12, .cls-13, .cls-14, .cls-15, .cls-16, .cls-17, .cls-18, .cls-19, .cls-20, .cls-21, .cls-22, .cls-23, .cls-24, .cls-25, .cls-26, .cls-27, .cls-28, .cls-29, .cls-30, .cls-31, .cls-32, .cls-33, .cls-34, .cls-35, .cls-36, .cls-37, .cls-38, .cls-39, .cls-40, .cls-41, .cls-42, .cls-43, .cls-44, .cls-45, .cls-46, .cls-47, .cls-48, .cls-49, .cls-50, .cls-51, .cls-52, .cls-53, .cls-54, .cls-55, .cls-56, .cls-57, .cls-58, .cls-59, .cls-60, .cls-61, .cls-62, .cls-63, .cls-64, .cls-65, .cls-66, .cls-67, .cls-68, .cls-69, .cls-70, .cls-71, .cls-72, .cls-73, .cls-74, .cls-75, .cls-76, .cls-77, .cls-78, .cls-79, .cls-80, .cls-81, .cls-82, .cls-83, .cls-84, .cls-85, .cls-86, .cls-87, .cls-88, .cls-89, .cls-90, .cls-91, .cls-92, .cls-93, .cls-94, .cls-95 {
        stroke-width: 0px;
      }

      .cls-2 {
        fill: #f7f7f5;
      }

      .cls-3 {
        fill: #f6f6f4;
      }

      .cls-4 {
        fill: #f8cfae;
      }

      .cls-5 {
        fill: #4c9a9f;
      }

      .cls-6 {
        fill: #515152;
      }

      .cls-7 {
        fill: #345a67;
      }

      .cls-8 {
        fill: #571010;
      }

      .cls-9 {
        fill: #284959;
      }

      .cls-10 {
        fill: #290606;
      }

      .cls-11 {
        fill: #353331;
      }

      .cls-12 {
        fill: #3bb7d0;
      }

      .cls-13 {
        fill: #1a1817;
      }

      .cls-14 {
        fill: #1a1515;
      }

      .cls-15 {
        fill: #1a1617;
      }

      .cls-16 {
        fill: #1a1616;
      }

      .cls-17 {
        fill: #1b1316;
      }

      .cls-18 {
        fill: #1d1117;
      }

      .cls-19 {
        fill: #181717;
      }

      .cls-20 {
        fill: #0a0404;
      }

      .cls-21 {
        fill: #191816;
      }

      .cls-22 {
        fill: #1a5074;
      }

      .cls-23 {
        fill: #1b0505;
      }

      .cls-24 {
        fill: #181415;
      }

      .cls-25 {
        fill: #191515;
      }

      .cls-26 {
        fill: #0e1019;
      }

      .cls-27 {
        fill: #38100f;
      }

      .cls-28 {
        fill: #362c05;
      }

      .cls-29 {
        fill: #38090d;
      }

      .cls-30 {
        fill: #0d60a2;
      }

      .cls-31 {
        fill: #1e100b;
      }

      .cls-32 {
        fill: #1d1a1a;
      }

      .cls-33 {
        fill: #1d1a19;
      }

      .cls-34 {
        fill: #0f070e;
      }

      .cls-35 {
        fill: #0a5fa1;
      }

      .cls-36 {
        fill: #1b1818;
      }

      .cls-37 {
        fill: #1b1615;
      }

      .cls-38 {
        fill: #1b1617;
      }

      .cls-39 {
        fill: #0b0c12;
      }

      .cls-40 {
        fill: #240b09;
      }

      .cls-41 {
        fill: #232519;
      }

      .cls-42 {
        fill: #222;
      }

      .cls-43 {
        fill: #1f1b1c;
      }

      .cls-44 {
        fill: #1e1b1a;
      }

      .cls-45 {
        fill: #1e1c1c;
      }

      .cls-46 {
        fill: #1f0707;
      }

      .cls-47 {
        fill: #130708;
      }

      .cls-48 {
        fill: #171515;
      }

      .cls-49 {
        fill: #101b24;
      }

      .cls-50 {
        fill: #171c1c;
      }

      .cls-51 {
        fill: #170604;
      }

      .cls-52 {
        fill: #140a08;
      }

      .cls-53 {
        fill: #c62229;
      }

      .cls-54 {
        fill: #d52029;
      }

      .cls-55 {
        fill: #d0cdc6;
      }

      .cls-56 {
        fill: #c92129;
      }

      .cls-57 {
        fill: #e1e6e6;
      }

      .cls-58 {
        fill: #e51d28;
      }

      .cls-59 {
        fill: #d62229;
      }

      .cls-60 {
        fill: #d3d3d4;
      }

      .cls-61 {
        fill: #d3beb1;
      }

      .cls-62 {
        fill: #be231f;
      }

      .cls-63 {
        fill: #dad2e0;
      }

      .cls-64 {
        fill: #da2731;
      }

      .cls-65 {
        fill: #d7d149;
      }

      .cls-66 {
        fill: #c1212a;
      }

      .cls-67 {
        fill: #a99f9b;
      }

      .cls-68 {
        fill: #ab282d;
      }

      .cls-69 {
        fill: #d11f2c;
      }

      .cls-70 {
        fill: #c44f43;
      }

      .cls-71 {
        fill: #bb1c24;
      }

      .cls-72 {
        fill: #340707;
      }

      .cls-73 {
        fill: #874b2e;
      }

      .cls-74 {
        fill: #fdfdfd;
      }

      .cls-75 {
        fill: #fbcfaf;
      }

      .cls-76 {
        fill: #7f0c0a;
      }

      .cls-77 {
        fill: #7e4a2b;
      }

      .cls-78 {
        fill: #6b4737;
      }

      .cls-79 {
        fill: #831c24;
      }

      .cls-80 {
        fill: #fff;
      }

      .cls-81 {
        fill: #edf1ef;
      }

      .cls-82 {
        fill: #ede91e;
      }

      .cls-83 {
        fill: #ec1c26;
      }

      .cls-84 {
        fill: #ec1d26;
      }

      .cls-85 {
        fill: #e6c9b3;
      }

      .cls-86 {
        fill: #fcd0ad;
      }

      .cls-87 {
        fill: #fefefe;
      }

      .cls-88 {
        fill: #fefefd;
      }

      .cls-89 {
        fill: #fcfcfd;
      }

      .cls-90 {
        fill: #f3bec4;
      }

      .cls-91 {
        fill: #eb1c25;
      }

      .cls-92 {
        fill: #eb1d27;
      }

      .cls-93 {
        fill: #f4f3f2;
      }

      .cls-94 {
        fill: #f5f5f5;
      }

      .cls-95 {
        fill: #f4e6e5;
      }
    </style>
  </defs>
  <path class="cls-20" d="M1052.33,1207.03c-2.29-1.41-5.38-2.75-7.33-1.33-46.68,33.92-100,28.07-152.74,25.81-4.85-.21-10.26-3.02-14.23,2.37-17.35,15.29-37.19,16.36-58.3,10.24,1.08-15.41,11.33-19.49,25.36-19.45-12.17-2.73-18.42,5.11-25.59,11.68-23.49,21.52-43.28,25.09-68.84,7.58-12.76-8.74-22.72-7.66-36.32-5.41-39.57,6.55-78.8,6.28-113.81-18.01-28.25-13.38-48.79-40.84-82.11-45.02-9.69-3.68-22.27-2.48-26.41-15.57-16.85-16.75-37.32-29.13-54.63-45.33-1.39-1.1-2.76-2.2-4.09-3.35-6.8-5.93-20.13-8.73-14.9-21.27,4.92-11.79,16.17-7.43,25.59-5.65,2.32.3,4.65.65,6.98.83,10.12,1.16,22.19-16.11,30.5,3.04,2.35,18.3,12.73,30.25,29.38,37.28,2.17.11,3.37-.88,3.5-2.97.59-9.13-5.23-22.02,6.34-25.66,10.62-3.34,16.32,8.6,21.02,16.58,18.83,31.98,45.04,56.25,77.59,73.11,44.41,23,89.27,32.16,132.97-2.61,5.53-4.4,12.08-8.63,19.18-3.9,6.78,4.51,5.77,12,5.29,19.15-.42,6.34-6.58,14.81,3.16,18.28,8.59,3.06,14.68-3.84,20.19-9.52,6.82-7.02,11.6-15.46,15.1-24.52,11.5-29.77,17.4-60.86,18.36-92.54,1.09-35.56-11.08-63.63-49.36-73.51-13.98-29.91-10.25-34.15,29.74-33.88,9.28,1.26,17.61,4.53,24.22,11.42,6.27,12.91,13.92,23.57,29.82,26.5,9.41,1.74,18.29,10.24,8.39,18.26-14.46,11.72-11.94,25.94-12.11,40.38-.21,17.47-.33,34.95.27,52.42.3,8.43-.37,16.75-2.68,24.87-1.2,4.25-4.15,7.8-5.49,11.92-7.02,21.49-1.61,29.36,20.82,30.67,7.03.41,14.09.1,21.14-.07,20.23.33,40.46.63,60.67.1,27.75-.72,51.2-12.23,70.65-31.25,17.6-17.22,23.7-37.02,15.41-62.31-26.78-81.74-86.27-129.76-162.05-161.99-9.56-4.07-18.53-3.13-27.99.88-17.36,7.35-31.98,18.2-44.6,32.05-12.41,7.05-20.87,5.5-22.65-10.44-.27-11.77,7.82-18.63,19.77-28.77-30.44,3.3-50.82,17.67-71.95,30.1-13.88,5.32-6.88,12.82-2.06,20.11,1.38,7.28-.69,12.95-7.58,16.4-8.52,3.03-16.33.52-24.02-3.01-5.06-2.61-10.5-3.81-16.15-4.34-32.18-5.76-64.45-5.65-96.73-1.48-13.93,1.8-27.77,3.9-41.71.26-12.36-4.56-14.4-14.31-12.97-25.8.59-2.84,1.7-5.52,3.21-8.01,11.84-9.44,18.22-29.78,39.75-20.2,4.29,8.13-5.66,14.25-3.21,23,26.23,8.01,49.62-17.83,70.49-6.4-19.34-2.25-38.28-20.79-62.52-24.19-2.91-2.67-4.26-6.1-4.82-9.91.2-13.44-3.27-22.57-19.74-17.81-7.36,2.13-15.2,5.37-21.25-2.99-3.59-7.48-3.45-15-.27-22.54,4.39-7.42,16.43-13.12,4.53-23.94-43.2-39.3-57.31-93.36-73.74-146.2-1.83-5.88-3.4-11.81-6.14-17.38-5.58-11.36-13.15-14.28-22.33-4.35-19.9,21.52-43.5,38.25-67.91,54.04-12.02,7.77-11.27,15.98-1.46,25.53,12.07,11.74,21.31,25.65,28.26,41.05,4.06,15.26,18.57,22.5,26.47,34.59,7.18,10.98,23.3,21.74,6.3,37.28-30.66-9.02-46.07-36.12-66.14-57.25-13.25-13.95-25.47-28.98-39.52-42.21-5.99-5.64-11.82-16.47-21.31-11.07-8.46,4.82-5.18,16.12-4.14,24.49,3.58,28.79,10.22,57.05,19,84.64,9.05,28.46,21.75,55.4,36.38,81.58,8.68,15.53,16.62,24.13,32.91,9.39,2.52-2.28,6.54-2.33,10.07-2.72,12.46-.17,20.86,4.92,23.21,17.86.11,4.14-1.56,7.62-4.06,10.78-11.96,9.89-26.3,18.39-22.33,37.75-12.66,13.85-24.08,10.24-34.56-2.7-12.49-15.41-21.76-32.97-32.5-49.53-9.97-9.68-10.09-25.1-20.21-34.71-11.89-11.69-13.91-28.23-20.79-42.37,4.71-17.33-7.53-30.9-10.66-46.54-3.9-19.49-6.68-39.09-9-58.76.89,8.81,3.8,17.62-1.66,26.1-13.51-5.65-11.39-17.6-7.3-26.32,9.48-20.22,1.65-36.27-8.49-52.58-6.1-12.98-11.63-26.29-21.04-37.41-1.8-3.39-3.6-6.77-5.41-10.16-35.36-9.82-62.23-30.27-81.32-61.94-4.56-7.56-10.66-19.49-24.39-12.43-7.41,0-12.54-3.6-15.85-10.06-7.49-12.76-22.15-18.59-29.39-32.11-14.77-27.58-17.32-53.9,3.11-79.74,3.83-6.56,5.54-15.23,15.57-15.6,11.37-15.17-.02-33.36,7.88-50.35,9.14-19.65,20.74-33.81,40.34-42.11,4.89-2.07,12.36-1.23,14.55-5.4,12.19-23.2,25.57-44.95,50.26-57.07,1.1-.54,1.27-3.41.6-4.98-10.11-23.41-.38-48.89-7.65-72.57l10.53-15.88c45.33-25.51,58.56-23.65,97.04,9.76,6.37,5.53,9.98,14.87,19.62,16.58,27.96,25.7,38.7,63.4,63.63,91.27,7.5,8.38,13.02,18.81,25.97,19.86,3.86,7.99-5,8.75-6.8,13.93,25.59-31.65,63.64-48.44,91.19-77.77-1.11-13.49,7.43-19.13,18.66-20.19,28.19-2.68,33.81-20.72,31.83-47.55,21.3,17.82,32.04.54,44.56-11.23,17.62-3.09,34.97-7.54,52.66-10.38,10.63-1.71,20.73-3.3,28.14,7.01-.09,20.99-19.2,21.11-31.47,28.76-49.22,18.8-62.31,39.94-57.48,95.15,2.4,27.45,11.83,52.31,31.54,76.15,12.53-23.81,23.81-45.99,49.87-53.11,16.17-4.42,28.89,3.94,41.82,11.54,8.74,7.51,19.4,6.49,29.78,6.89,11.23.43,22.97-.39,30.54,10.61,2.24,13.11-7.16,15.78-16.59,18.37-6.47,1.78-14.04-.39-19.22,5.56-1.88,4.22-1.61,8.59-1.49,13,.25,8.76,1.83,19.08-7.29,23.73-10.31,5.26-15.29-5.3-21.63-10.74-25.55-21.91-43.78-18.39-57.6,11.59-3.96,8.6-8.53,17.02-10.94,26.69,2.83-5.14,6.21-8.99,12.13-9.57,5.85.58,8.46,4.38,9.61,9.65,1.71,9.1-5.95,17.83-1.02,26.96,1.79.83,3.62,1.44,5.6,1.5,10.5-8.16,23.57-12.52,32.14-23.19.88-2.29,1.98-4.44,3.21-6.57,1.41-2.16,3.19-3.92,5.26-5.43,5.47-2.93,9.99-2.45,12.99,3.56,4.91,13.87,3,27.77-.28,41.54-4.02,16.87-11.8,33.22-1.08,50.85,3.77,6.2,1.14,13.83-5.76,18.37-6.64,4.37-13.24,3.69-19.77-.38-9.87-6.14-16.59-15.59-24.84-23.44-25.47-24.25-53.81-42.13-90.86-41.44-36.24.67-67.08,22.44-77.89,55.85-10.49,32.4,1.52,71.85,29.45,92.02,50.8,36.7,128.38,39.84,170.81-15.46,12.75-16.62,26.99-26.39,45.2-6.31,3.93,4.33,9.31,4.63,14.66,3.96,20.02-2.51,40.46-1.02,60.17-6.46,16.63-.61,30.82-9.58,46.48-13.59,20.45-.41,21.99,15.34,25.35,29.58,2.85,20.99-3.35,39.96-13.03,58.14-1.49,2.34-3.39,4.36-5.57,6.08-12.46,8.77-26.49,13.24-41.61,12.53-22.75-1.08-37.78,9.93-48.41,28.7-.15.87-.57,1.67-.68,2.52q-4.74,36.06-34.75,22.8c-28.98,9.05-59.83,6.12-88.72,14.12,6.81,6.16,19.36,6.44,19.35,19.26.09,2.56-.19,5.04-.71,7.53-4.25,10.79-5.22,23.9-19.44,27.63-11.18-1.45-15.81-10.54-20.6-18.73-11.9-20.37-19.88-43.13-38.74-59.16-5.26-4.46-7.5-11.66,2.22-20.09-27.07,10.13-49.2,9.23-67.98-16.11,7.01,30.75,22.91,52.31,43.89,70.07,14.4,12.18,26.61,25.45,34.02,42.92,18.64,43.92,89.61,78.31,141.2,44.8,33.37-21.68,71.6-27.85,111.53-22.19,18.76,2.66,37.19.08,52.81-11.76,12.45-9.43,25.25-9.01,39.91-6.32,47.4,8.69,89.85-1.74,121.62-39.71,19.44-23.23,29.8-50.76,16.33-80.93-13.47-30.18-40.95-32.62-69.43-31.34-10.34-1.2-22.48,1.17-26.24-13.11,19.2-16.94,20.11-37.07,11.11-59.54-3.26-8.14-7.43-13.32-16.67-12.98-10.62-1.7-24.25-.85-16.26-18.7,5.18-7.2,11.99-12.04,20.61-14.26,28.33-7.99,29.22,17.72,39.41,32.04,11.79,33.79,34.65,56.86,67.64,70.45,3.89,1.6,6.35,6.01,9.58,8.98,8.38,7.72,12.01,24.22,28.43,17.81,16.21-6.32,29.7-17.49,33.69-34.77,7-30.29-2.73-57.58-21.2-81.49-9.42-12.19-13.82-3.43-17.53,6.05-3.28,8.37-3.27,21.85-16.77,19.37-10.37-1.91-9.23-13.67-11.1-21.98-10.84-48.14-9.6-97.91-20.08-146.18-14.78-68.1-33.1-134.85-68.89-195.42-8.1-13.71-21.49-23.19-31.61-35.34-23.18-27.53-52.43-44.86-87.65-52.14-45.67-22.66-108.01,6.17-138.73,40.64-4.72,5.3-9.24,10.86-4.14,18.44,4.96,6.2,15.63,9,12.16,20.23-8.93,13.5-20.54,7.41-31.75,4.39-2.31-1.26-4.3-2.93-6-4.93-3.84-11.02-12.97-12.53-22.99-13.64-6.59-.73-15.51-1.17-15.29-10.67.16-6.72,6.67-9.66,12.71-11.75,22.37-7.75,36.26-25.17,49.35-43.49,27.58-20.94,57.3-37.1,92.46-40.87,5.36-.57,10.42-1.66,14.68-5.18,1.81,0,3.63,0,5.44,0,26.4,7.14,54.71,7.11,79.3,21.1l-.1-.07c40.34,22.34,72.94,53.31,100.49,89.93l-.04-.06c21.48,27.58,37.15,58.08,45.65,92.19,2,2.93,4.56-2.2,1.85.05-.75.62-1.73.16-2.05-1.57-3.36-18.18-17.21-33.68-13.76-53.6,35.67-5.18,37.9-2.81,28.76,32.21-1.84,7.05-4.89,16.99,1.1,19.61,32.76,14.33,10.47,50,28.34,69.54,17.56,31.18,40.27,59.04,58.1,90.04,9.9,20.68,22.28,40.33,26.42,63.41,16.52,44.69,24.37,91.18,28.58,138.41,2.35,18.93-2.91,38.28,3.09,57.02,0,3.61-.02,7.22-.02,10.83-13.88,24.87-8.94,53.79-17.31,80.3-5.79,18.33-15.7,36.62-14.3,57.11-4.31,14.43-6.79,29.55-15.97,42.13-14.9,2.61-13.83,17.9-21.09,26.57l.11-.14c-15.58,30.91-40.56,55.39-58.13,84.94"/>
  <path class="cls-34" d="M427.32,880.02c11.21-16.77-4.71-24.2-11.89-34.68-8.04-11.71-25.64-17.13-23.43-35.59,14.68-1.07,20.93,11.24,29.72,19.14,17.01,15.29,31.32,33.22,47.02,49.8,12.61,13.31,25.09,21.81,43.62,11.3,6.09-3.45,13.22-5.52,19.35.99,3.45,6,2.36,12.58,2.52,19-6.37,22.32-27.37,30.82-42.87,44.23-11.56,10-17.7,19.63-15.38,35.87,3.73,26.08-2.95,50.94-19.79,71.13-8.25,9.89-8.85,18.8-6.53,29.67-2.56-.07-5.12-.22-7.67-.21-6.8.04-15.76-9.63-19.83,1.55-3.1,8.5,8.95,8.24,12.74,13.36,1.51,2.04,2.96,4.13,4.44,6.2-.54,3.13-2.33,5.04-5.49,5.61-12.82,1.75-24.98,3.1-21.57-16.7,1.01-5.86-5-8.44-8.68-12.13-16.54-16.6-32.67-33.61-48.95-50.47-11.01-5.67-14.75-17.13-21.13-26.5,1.99-11.01-5.85-18.1-10.55-26.45,1.55-2,2.08-5.02,5.35-5.28,12.04,15.93,25.39,31.06,35.72,48.03,8.32,13.68,16.62,12.23,27.46,5.39,7.38-4.2,9.87,3.17,14.31,5.96,4.19,3.82,8.25,7.79,12.47,11.57,13.94-3.38,29.34-25.57,28.6-41.48-.7-15.08-12.63-13.93-22.69-15.54-2.62-.42-4.7-2.01-6.15-4.3-4.22-9.93-10.72-16.55-22.49-15.53,1.05-11.01,10.54-12.82,18.23-16.13,8.89-3.82,16.69-8.94,24.23-15,15.16-12.2,17.87-24.33,3.09-39.01-6.52-6.47-14.93-12.61-13.78-23.84Z"/>
  <path class="cls-13" d="M196.11,255.84c11.24,24.37.71,52.07,11.76,76.55,2.48,5.49-2.88,6.47-6.53,8.91-17.31,11.53-36.06,21.63-38.6,46.26-.74,7.13-10.21,8.42-16.72,10.99-37.26,14.71-49.07,33.6-46.41,73.64.56,8.39-3.1,14.61-9.47,16.11-.66-21.1.82-41.59,9.19-61.67,4.3-10.31,8.41-20.69,19.05-23.3,38.88-9.53,42.76-57.4,78.34-70.21,3.42-1.23,2.66-5.68,1.8-9.29-5.31-22.49-1.45-45.34-2.42-68Z"/>
  <path class="cls-13" d="M597.86,1217.71c27.74,12.64,55.78,23.69,87.29,21.37,9.61-.71,19.18-.42,28.23-4.47,13.64-6.1,24.47-5.25,37.82,5.12,21.49,16.68,46.09,12.77,66.18-6.73,10.6-10.29,20.07-20.04,36.63-5.02-15.74-1.12-27.88,2.28-34.29,16.13-23.24,17.99-47.46,21.78-71.89,3.11-9.49-7.25-18.11-5.13-28.88-4.65-43.9,2-89.74,10.2-126.63-24.78,1.81-2.16,3.65-2.1,5.53-.09Z"/>
  <path class="cls-23" d="M751.1,197.87c-11.56,26.42-29.07,46.26-67.38,52.54,21.05,9.44,47.83-2.88,46.45,26.03-2.59,2.53-5.96,4.64-9.26,3.48-26.63-9.36-55.28-12.12-80.87-24.83,8.85-9.6,24.35-8.81,31.92-20.42,5.94-6.49,13.89-6.77,21.8-7.17,16.64-.34,27.36-13.52,41.52-19.23,1.72-3.59,3.45-7.18,5.17-10.76,2.35-2.72,5.24-3.1,8.48-1.93.73.76,1.46,1.52,2.19,2.29Z"/>
  <path class="cls-20" d="M735.26,208.28c-9.8,12.2-19.01,25.2-36.72,26.39-18.36-9.86-39.53-4.76-58.58-10.99,1.82-17.99,14.14-25.64,28.85-19.99,22.31,8.58,44.33,3.51,66.45,4.59Z"/>
  <path class="cls-36" d="M878.03,1233.87c-2.34-1.01-6.25-1.5-6.77-3.1-2.67-8.19,3.31-5.34,7.16-4.99,38.49,3.48,76.79,5.02,115.26-2.1,17.16-3.17,31.68-9.57,44.54-20.77,6.86-5.98,12.38-7.44,14.11,4.12-53.68,37.66-113.73,33.95-174.3,26.84Z"/>
  <path class="cls-38" d="M323.3,266.31c-14.72,9.77-18.09-7.94-22.95-12.62-24.42-23.53-48.26-38.64-80.98-15.39-3.08,2.19-8.43,1.19-12.72,1.68,28.69-33.81,78.97-27.09,110.33,14.88,2.59,3.46,4.24,7.63,6.32,11.46Z"/>
  <path class="cls-16" d="M116.69,625.83c21.6-12.77,26.87,9.03,35,18.81,16.82,20.22,33.06,39.6,60.36,45.48,5.57,1.2,10.74,4.22,16.06,6.49.03.01-.31,1.77-.8,2-1.55.71-3.25,1.08-4.9,1.58-34.56,1.04-55.92-19.56-75.19-44.68-8.6-11.21-12.1-28.36-30.52-29.69Z"/>
  <path class="cls-17" d="M1041.85,261.1c-33.5-29.98-66.99-59.95-100.49-89.93,45.82,16.21,79.15,46.37,100.49,89.93Z"/>
  <path class="cls-48" d="M497.29,313.6c6.39,8.39-2.35,10.71-6.32,13.6-26.65,19.39-53.36,38.63-76.85,61.94-3.63,3.6-7.07,8.56-12.95,7.51-5.67-1.02-9.47-5.48-8.8-11.19.96-8.14,5.35-3.21,8.86-1.54,6.76,3.21,9.13-1.86,11.67-6.48,25.57-24.66,54.07-45.45,84.39-63.84Z"/>
  <path class="cls-21" d="M1242.76,710.36c-11.78-14.46-3.16-32.11-7.59-48.15-8.08-29.28-12.82-59.47-18.95-89.29,23.43,42.94,28.76,90.01,31.44,137.68-1.76,2.38-3.4,2.3-4.91-.25Z"/>
  <path class="cls-33" d="M74.56,503.91c-19.33,41.41-10.74,75.76,25.88,103.19,3.06,2.29,4.02,5.59.41,8.66-36.26-21.16-51.61-54.62-42.6-89.98,2.6-10.2,7.55-17.05,16.31-21.86Z"/>
  <path class="cls-32" d="M1216.26,916.59c-6.48-4.51-4.9-10-2.55-16.16,13.07-34.22,21.61-69.51,23.61-106.2.41-7.48,1.19-14.12,10.55-15.05-5.72,46.91-13.53,93.34-31.61,137.4Z"/>
  <path class="cls-18" d="M856.72,150.15c-7.71,16.97-24.62,8.74-36.92,12.89-24.76,8.34-44.88,25.11-68.69,34.84,0,0-.21-.2-.21-.2-3.87-14.08,9.44-15.05,16.1-21.1,28.7-12.91,56.28-29.62,89.72-26.42Z"/>
  <path class="cls-37" d="M1121.18,1070.1c-1.29-2.08-4.18-5.39-3.65-6.07,20.4-26.44,41.11-52.64,61.78-78.87-9.93,34.77-33.47,60.24-58.13,84.94Z"/>
  <path class="cls-45" d="M1189.8,509.52c-26.04-23.86-37.84-58.25-61.61-83.84-.49-.53,2.27-4.07,3.51-6.2,24.25,26.86,45.96,55.36,58.11,90.04Z"/>
  <path class="cls-24" d="M1073.5,298.12c5.2,18.87,14.8,36.6,13.62,57.53-9.68-34.3-32.71-61.87-45.31-94.6,18.95,5.19,19.21,26.35,31.69,37.08Z"/>
  <path class="cls-50" d="M639.97,223.68c19.67,2.89,41.62-6.41,58.57,10.99-8.86,0-17.73,0-26.59,0-17.6-9.58-35.24-5.16-53.25-.98-8.43,1.96-17.28,11.81-26.36.92,13.74-12.93,30.97-10.7,47.63-10.94Z"/>
  <path class="cls-14" d="M597.86,1217.71c-1.84.03-3.69.06-5.53.09-27.05-9.89-48.06-30.32-73.9-42.32,23.48-4.86,39.15,10.61,56.08,22.11,8.44,5.73,15.61,13.35,23.36,20.11Z"/>
  <path class="cls-43" d="M264.65,826.67v-25.66c11.36,30.82,12.99,63.55,25.47,93.58,1.85,4.44-.16,8.47-4.16,11.28-6.56-26.55-18.47-51.66-21.32-79.21Z"/>
  <path class="cls-19" d="M433.86,1117.4c1.83-1.87,3.66-3.74,5.49-5.61,17.33,16.29,41.51,25.08,52.67,48.12-23.34-8.77-39.53-27.3-58.16-42.51Z"/>
  <path class="cls-18" d="M941.46,171.25c-25.06-3.6-48.76-15.32-74.98-12.68-1.14.12-2.87-5.48-4.32-8.42,28.45-.53,56.18,1.61,79.3,21.1Z"/>
  <path class="cls-20" d="M333.54,1011.61c9.85,6.6,19.8,13.11,21.13,26.49-9.63,15.9-15.73,4.26-19.17-3.75-2.85-6.64-1.47-15.1-1.96-22.75Z"/>
  <path class="cls-25" d="M227.81,710.35c14.26,8.39,25.08,18.72,21.04,37.41-15.07-7.93-17.74-22.85-21.04-37.41Z"/>
  <path class="cls-44" d="M328.33,979.88c-1.78,1.76-3.57,3.52-5.35,5.28-8.67-10.87-13.28-23.52-16.23-36.9,14.48,5.57,13.75,21.51,21.57,31.62Z"/>
  <path class="cls-32" d="M1179.2,985.29c-1.81-13.42,7.36-22.4,14.33-31.48,4.34-5.65,6.06.85,6.76,4.91-9.59,6.82-8.84,21.86-21.09,26.57Z"/>
  <path class="cls-11" d="M1242.76,710.36c1.64.02,3.28.1,4.91.25.07,19.25.15,38.5.23,57.75-10.97-18.51-2.52-38.74-5.14-58Z"/>
  <path class="cls-20" d="M766.99,176.57c-5.36,7.03-10.73,14.07-16.1,21.1-3.49-.05-6.98-.1-10.46-.15,2.44-15.12,11.73-21.54,26.56-20.95Z"/>
  <path class="cls-88" d="M416.31,578.59c16.35,1.89,15.42-24.01,31.95-14.87,18.06,9.98,9.04,25.85,7.06,39.99-.61,4.34-.35,8.91-1.62,13.02-14.25,46.23-109.62,114.59-158.53,114.08-9.04-.09-17.75-1.52-25.35-6.07-8.08-4.84-11.76-13.04-11.68-22.37.09-9.68,8.95-9.51,15.06-11.99,10.32-4.17,21.13-7.46,29.08-20.8-51.7,6.7-99.95,10.93-136.53-36.18,30.22-8.53,51.06-22.57,52.17-57.14.36-11.27,16.26-18.77,29.74-21.02,13.69-2.28,14.78,8.22,18.42,17.27,3.22,8.01,8.1,15.67,19.53,19.02-1.23-18.31-9.17-35.79.17-53.51-20.65-2.65-39.03-4.01-56.96-7.6-15.96-3.2-30.91-10.39-34.32-28.51-3.51-18.62,6.33-32.33,20.87-42.4,29.93-20.73,63.73-23.32,98.59-19.16,9.49,1.13,18.83,3.5,34.82,6.55-15.76-20.32-33.21-25.85-51.39-27.31-14.11-1.14-21.79-7.23-28.52-19.01-14.83-25.96-30.03-51.59-38.31-80.64-4.17-14.61-5.97-29.5-3.35-44.34,4.32-24.46,25.35-32.33,44.83-17.45.7.53,1.43,1.07,1.99,1.73,65.24,77.06,120.09,160.05,146.24,259.1,5.25,19.87-3.14,39.62-3.96,59.62Z"/>
  <path class="cls-87" d="M546.1,991.1c22.82,4.03,44.52-4.32,66.81-6.11,26.71-2.14,53.18-1.89,79.08,6.11,3.69,4.77-4.23,11.92,3.65,16.05,6.89-.91-4.53-15.05,8.09-12.01,5.51,4.56,11.54,7.65,18.99,6.78,25.64,2.75,40.09,22.39,56.82,36.71,1.56,4.56,5.46-.2,2.59,1.84-5.01-9.89-13.98-20.71,5.84-24.75,31.47-1.23,41.82,9.24,48.54,44.8,9.6,50.77-.23,99.58-24.4,145.27-4.99,9.43-11.62,17.92-22.48,21.16-8.71,2.6-17.35,2.88-24.47-4.51-7.47-7.75.27-12.72,3.5-18.19,4.28-7.25,6.6-14.35.68-25.78-32.72,36.13-73.4,42.81-117.52,29.65-51.99-15.5-91.06-48.1-118.54-94.76-2.64-4.49-5.71-8.73-8.72-12.98-.34-.49-1.63-.3-3.21-.54-5.38,13.5,4.51,26.58,2.36,42.47-22.13-15.18-52.75-19.68-46.98-55.74-.89-27.58,15.31-43.19,38.13-53.89,6.15-2.88,13.69-2.48.92-9.08-10.56-5.46-3.36-15.06,2.04-22.25,7.21-9.6,17.94-9.36,28.28-10.25Z"/>
  <path class="cls-86" d="M1021.77,721.4c29.45-1.45,57.64,1.61,71.56,32.45,14.51,32.17,6.94,62.58-14.88,88.64-34.77,41.54-80.04,55.75-132.51,44.12-14.13-3.13-24.36-2.77-35.82,6.98-13.76,11.71-30.24,15.61-49.23,12.15-40.38-7.36-78.58,1-114.71,20.07-56.17,29.64-117.63,11.69-147.84-44.8-9.76-18.25-21.32-33.45-36.97-46.86-23.23-19.92-37.98-45.89-45.79-75.55-1.46-5.53-4.9-11.81,2.43-16.6,8.81-.54,8.02,7.86,10.84,12.44,15.33,24.92,33.28,30.71,60.04,18.53,5.17-2.35,9.42-9.18,15.7-1.81,3.62,4.25,6.23,8.99,4.07,14.39-4.3,10.73-12.25-2-21.76,5.28,40.65,14.28,37.21,59.48,64.32,83.33,6.5,2.4,12.93,4.7,19.09,8.16,31.85,17.91,54.31,14.15,73.33-16.37,16.2-25.98,33.74-53.1,23.38-86.88,15.57-17.53,28.69-38.04,58.4-30.99,13.72,3.25,25.98-8.13,39.25-11.72,8.34,3.38,14.31,9.19,18.52,17.15,11,20.78,27.82,20.94,46.74,12.71,9.67-4.21,17.83-10.85,26.01-17.29,19.43-15.31,40.35-26.82,65.85-27.53Z"/>
  <path class="cls-83" d="M985.31,244.56c38.06,30.38,56.49,72.83,72.78,116.89,32.47,87.81,41.83,179.89,51.42,271.97.43,4.1-.41,8.81,6.35,12.49,7.67-9.58,7.95-21.85,10.42-32.99,2.37-10.7,7.95-14.5,16.2-7.29,26.86,23.46,37.34,54.38,36.76,89.18-.46,27.59-19.51,41.19-41.6,52.3-11.23,5.65-19.14,5.51-25.77-6.97-11.74-22.13-30.22-36.42-55.39-39.58-13.12-1.65-13.91-11.47-17.18-20.15-4.24-11.26-2.08-24.87-12.46-33.89-4.89-22-17.71-40.64-26.07-61.16-6.27-18.41-14.03-36.24-21.39-54.23-7.46-25.7-27.97-45.37-33.44-71.99.29-10.86-4.99-17.5-15.45-20.28-23.75-19.35-29.44-35.65-13.67-55.48,31.11-39.12,25.59-79.24,8.74-120.97-.65-1.62-.92-3.38-1.32-5.07-.83-4.25-.59-8.73-2.04-12.84-3.11-8.82-9.85-18.57,3.62-24.2,10.26-4.29,23.66-4.65,27.76,6.15,6.29,16.58,20.87,12.87,31.73,18.1Z"/>
  <path class="cls-75" d="M814.56,667.62c-23.32,9.84-48.23,6.53-72.47,8.66-7.87.69-10.77-1.66-12.95-11.18-3.2-13.99-13.95-13.03-22.42-2.44-47.31,59.13-99.87,72.34-168.85,42.18-44.76-19.57-68.11-71.66-51.99-115.95,16.71-45.89,65.19-70.16,113.36-56.07,33.96,9.93,61.23,30.04,82.99,57.72,5.34,6.79,8.99,15.7,20.51,8.51,13.61-8.5,3.19-15.65-1.85-20.75-8.88-9-5.31-16.45-1.49-25.87,8.27-20.39,15.43-41.29,8.78-63.89-20.9-31.47-42.12-10.98-63.28-.39-6.07,9.25-12.13,18.5-18.5,28.2-5.05-20.02,14.27-68.46,30.22-77.05,20.04-10.8,37.35-3.68,64.62,27.47,6.57-14.44,1.38-27.41-1.46-40.41,21.84-5.93,44-7.18,66.3-3.67,11.5,1.81,23.28,4.98,26.29,18.33,2.65,11.73-5.21,19.75-12.9,27.26-3.1,3.03-7.53,4.64-9.5,8.88-2.8,2.14,2.44,3.04-.35.89-.75-.58-.15-1.15,1.18-2.38,9.1-8.39,20.21-10.79,31.87-9.41,17.1,2.03,27.47,10.89,26.18,29.59-3.1,6.61-8.4,4.25-13.48,3.37-30.4-5.24-53.63,6.04-66.65,33.58-9.41,19.91-16.5,40.55-15.83,63.27,1.07,36.23,23,54.44,58.9,47.97,5.95-1.07,11.21-5.43,17.77-3.74,3.6,2.53,4.8,6.18,4.88,10.38-1.32,11.87-11.62,13.21-19.89,16.93Z"/>
  <path class="cls-84" d="M807.81,974.46c17.14-32.75,56.27-47.12,91.97-31.05,62.06,27.92,110.76,70.73,141.78,132.53,41.7,83.07-13.95,120.29-73.74,129.32-22.31,3.37-45.49,1.05-68.27,1.32-5.59-3.47-11.91-1.63-17.87-2.4-37.43-4.79-39.11-7.68-25.68-44.81.5-8.31,1-16.63,1.5-24.94,4.86-21.46,5.28-43.25,4.43-65.06-1.01-25.65,3.91-31.32,29.91-32.68,9.61-.5,18.96,2.64,31.26,2.93-15.27-11.1-30.85-15.4-45.92-16.17-20.04-1.02-32.56-10.14-41.75-26.41-7.11-2.21-14.23-4.42-21.34-6.63-5.84-3.84-10.36-8.2-6.28-15.95Z"/>
  <path class="cls-74" d="M1215.58,694.58c12.07,140.05-30.71,260.98-125.43,364.55-15.12,16.53-20.2,14.48-29.13-4.57-15.76-33.65-43.09-59.14-69.3-87.13,27.01-11,54.49-19.95,40.15-57.53-3.86-10.12,8.26-9.37,13.42-12.4,40.98-24.11,74.89-53.32,76.35-105.57.38-13.43,10.69-14.43,18.66-18.68,36.14-19.28,61.29-46.57,65.89-89.11,10.06-2.75,5.46,7.67,9.38,10.44Z"/>
  <path class="cls-92" d="M640.03,255.09c32.44-2.99,60.55,12.32,90.14,21.35,0,0,0,.43,0,.43,12,4.54,23.85,9.39,34.67,16.44,28.4,17.75,50.46,42.8,75.07,64.94,16.56,11.98,28.52,28.44,42.09,43.3,5.86,6.42,12.13,13.28,7.24,23.33-25.02,11.74-49.48,12.3-73.15-3.53-5.48-3.85-9.98-8.74-14.26-13.83-5.82-7.85-13.52-14.08-19.42-21.9-19.19-23.97-42.87-43.31-65.63-63.59-5.47-7.32-14.71-8.92-21.62-14.07,2.46,5.03,8.42,5.42,12.12,8.86,22.63,14.12,33.77,38.52,51.26,57.25,5.36,5.74,8.65,13.15,2.04,20.82-19.65,5.98-39.19,5.33-58.63-.88-41.71-20.69-54.64-12.62-81.08,50.59-38.41-28.71-59.72-110.86-37.37-151.81,11.64-21.33,31.06-35.07,56.54-37.69Z"/>
  <path class="cls-74" d="M547.05,323.11c-.41,59.53,18.3,107.76,55.77,148.09,9.93,10.69,3.64,19.12.43,28.83-3.89,11.76-12.39,6.62-19.69,5.73-36.35-4.46-67.62,6.12-94.59,30.81-4.46,4.08-8.45,15.56-16.05,8.48-8.94-8.33-26.93-6.79-26.96-25.23-.04-30.62-10.3-58.76-23.87-85.67-4.45-8.83-6.06-15.24,2.03-23.21,35.33-34.83,74.58-63.93,122.93-87.83Z"/>
  <path class="cls-91" d="M528.73,888.79c-6.35.54-10.77,4.32-15.92,7.79-13.32,8.98-24.99,9.77-38.64-3.94-27.45-27.56-51.25-58.8-82.18-82.89-6.96-8.91-13.64-18.05-20.92-26.68-25.5-30.24-25.25-29.73,8.61-53.97,18.43-13.19,36.15-27.54,53.09-42.59,19.72-17.51,30.35-14.13,38.41,12.67,10.45,34.75,19.41,70.01,35.4,102.92,9.74,20.05,23.42,37.32,40.48,50.76,21.55,16.98,11.13,22.52-7.16,27.51-3.85,2.64-6.28,7.17-11.17,8.43Z"/>
  <path class="cls-89" d="M427.32,880.02c3.22,4.07,6.38,8.18,9.67,12.19,9.24,11.26,30.95,23.71,26.4,32.43-9.05,17.35-25.95,32.48-47.1,39.09-7.37,2.3-15.45,3.59-20.73,10.27-11.85,2.7-17.76,14.03-29.83,20.2-45.15-66.9-69.8-140.73-75.48-221.17-.39-5.53-2.38-12.86,6.83-14.5,9.57-1.71,16.08,1.69,22.81,9.05,30.87,33.81,62.48,66.93,93.95,100.2,4.16,4.4,8.98,8.18,13.49,12.24Z"/>
  <path class="cls-4" d="M830.45,652.19c-.02-3.45-.05-6.89-.07-10.34.83-14.04,11.3-23.35,17.31-34.82,10.08-19.23,12.16-39.7,13.04-60.95.98-23.72,7.85-26.93,26.72-13.32,17.13,12.36,34.24,24.37,55.1,29.59,12.68,5.81,27.31.86,39.9,7.18,6.27,3.93,9.23,10.16,11.69,16.75,2.42,10.62,6.66,21.75-7.26,28.17-4.64,4.05-9.28,8.11-13.92,12.16-10.48,7.7-21.64,14.14-34.45,16.96-24.92,5.5-41.39,19.85-48.04,44.85-11.45,5.95-8.11-6.19-11.85-9.68-8.34-7.2,1.02-29.44-21.15-24.9-8.59-7.36-18.93,14.01-27.01-1.65Z"/>
  <path class="cls-73" d="M989.75,636.75c3.26-1.17,8.75-4.12,9.44-3.26,13.52,17.04,15.09,38.53,18.91,58.59,2.99,15.67-15.61,13.02-23.66,19.68-7.23,12.44-20.14,17.13-31.87,23.48-14.81,2.53-21.95,15.78-32.94,23.7-28.43,7.01-42.89-5.94-35.47-33.65,4.71-17.62,11.69-34.77,17.99-51.96,5.52-15.05,19.65-21.57,34.45-25.88,14.24-4.15,29.38-4.67,43.15-10.71Z"/>
  <path class="cls-35" d="M449.67,1090.88c-13.4-10.19-10.69-19.23-.75-31.38,18.36-22.45,28.08-48.51,18.1-77.7-4.53-13.23,2.72-19.34,10.73-26.47,16.9-15.03,37.64-25.42,52.2-43.26,2.03-4.27,5.31-6.32,10.11-5.68,8.24-.47,14.67-5.08,21.46-9.09,7.26-4.28,12.98-1.03,18.88,3.96,7.84,6.62,7.57,12.94,1.34,20.07-12.53,15.77-30.61,25.95-42.54,42.32l.06-.06c-3.03,3.27-3.7,8.66-6.87,11.02-36.77,27.45-50.21,70.36-72.17,107.62-2.26,3.84-2.42,11.17-10.32,8.67l-.23-.02Z"/>
  <path class="cls-47" d="M804.01,403.66c5.93,1.26,8.05,6.1,10.22,10.9,8.56,12.66,18.95,16.84,35.2,14.11,27.06-4.53,51.56,1.76,65.76,28.94,2.84,13.63,2.75,27.27-.01,40.87-7.68,17.22-16.2,12.8-26.27,1.68-3.65-4.03-11.18-19.8-14.21,1.12-10.67,7-21.34,13.98-28.93-3.56q-9.95-29.32-61.24-18.26c-.88-10.37,7.79-14.71,13.13-20.71,15.52-17.46,14.22-23.9-7.9-28.52-23.03-4.81-46.32-8.85-69.98-3.87,5.26-10.11,14.82-6.34,22.8-6.63,9.56-.34,19.05.25,24.34-10.02,1.45-5.74,5.37-8.24,11.03-8.47,8.52,2.47,15.74,19.07,26.06,2.42Z"/>
  <path class="cls-51" d="M989.75,636.75c-11.38,12.4-26.74,15.26-42.3,18.3-19.98,3.91-34.78,13.74-32.2,36.99,1.39,12.57-9.2,18.23-13.05,27.64-4.5,11-6.85,22.78.46,32.55,8.03,10.74,18.65,6.02,28.19.41,10.43-6.75,18.09-17.37,30.31-21.62,8.26-11.31,22.75-11.88,33.28-19.27,4.73,15.64,18.26,6.33,27.33,9.64-26.83,9.11-50.71,23.14-72.66,41.15-13.63,11.18-29.14,20.27-48.2,16.45-12.16-2.44-20.53-10.12-23.61-22.12-2.15-8.41-3.41-16.75-12.65-20.52,0,0-.25.57-.25.57,14.14-12.85,17.55-30.99,23.62-47.82-2.09-27.29,12.74-41.54,37.22-48.51,15.94-4.54,31.8-9.32,47.7-13.99-4.12,19.5,11.89,5.61,16.8,10.13Z"/>
  <path class="cls-94" d="M1195.57,630.9c-14.63-24.13-30.37-47.28-56.46-60.69-6.95-3.58-10.22-8.7-10.54-16.55-1.33-33.24-7.11-65.98-10.77-99.56,39.65,47.44,67.33,100.9,82.74,160.77,1.68,6.38,7.41,14.01-4.98,16.02Z"/>
  <path class="cls-2" d="M157.92,610.61c-29.97-.31-62.08-26.34-69.87-55.32-3.05-11.33-.38-21.01,4.82-30.21,6.28-11.11,12.62-16.3,21.7-.72,15.54,26.66,36.24,47.56,69.53,50.31,11.4.94,9.37,8.21,6.85,15.11-5.59,15.34-17.57,20.95-33.02,20.83Z"/>
  <path class="cls-3" d="M203.84,547.27c-31.13,5.37-52.36-6.17-68.95-37.24-13.26-24.83-20.75-50.86-2.28-76.73,5.62-7.87,16.62-17.07,23.92-11.1,11.91,9.72,21.1,28.77,15.81,41.5-15.87,38.21-3.68,63.62,31.49,83.57Z"/>
  <path class="cls-40" d="M767,779.08c12.53,35.77-6.69,95.67-36.98,114.08-23.04,14.01-58.19,10.52-78.83-18.99,9.07-6.54,7.33-18.91,14.33-26.57,10.39,4.4,4.13,20.79,16.96,23.37,32.53,2.68,37.4.19,51.13-26.3-5.83-2.44-11.71.55-17.53-.22-16.49-1.38-33.19,3.12-49.51-1.89-1.12-17.35-21.61-4.84-26.13-16.95,15.87-10.99,34.54-2.49,50.92-7.15,16.78-4.78,39.87,5.49,49.19-18.83,18.84-14.75,12.25,11.81,23.43,13.59,5.58-10.79,1.31-22.93,3.01-34.14Z"/>
  <path class="cls-39" d="M449.89,1090.9c8.15-29.2,29.81-51.52,39.75-80.3,7.75-22.46,32.26-32.03,49.62-47,1.84,9.28-3.18,20.27,6.84,27.51-12.03,7.29-29.08,8.75-32.07,27.1,8.65,6.34,22.11-2,29.17,12.61-33.88,4.73-57.78,21.71-66.47,55.76-6.39-6.86-10.88-.87-14.88,2.82-4.02,3.71-7.04,7.94-11.95,1.5Z"/>
  <path class="cls-59" d="M985.31,244.56c-6.59,2.31-13.38,4.18-19.72,7.04-9,4.06-13.94,1.5-13.38-8.2,1.35-23.38-13.33-19.46-29.31-18.14,2.74,11.28,10.9,19.7,7.95,30.48-2.14,1.85-4.48,2.06-7,.86-15.1-18.16-33.8-31.82-54.29-43.3-10.75-4.54-22.45-1.53-33.35-4.38-5.97-1.56-12.24-3.65-12.52-11.01-.34-8.87,7.66-8.13,13.08-9.17,19.88-3.78,39.54-1.09,59.08,3,37.59,4.44,66.29,23.94,89.46,52.81Z"/>
  <path class="cls-93" d="M184.28,407.96c.09-11.52.3-21.05,5.83-29.68,12.14-18.97,24.82-18.76,35.34.78.41.77.91,1.5,1.32,2.27,18.93,35.73,18.16,34.34-16.78,53.54-18.94,10.41-22.23,2.17-24.44-13.08-.75-5.19-.97-10.45-1.27-13.84Z"/>
  <path class="cls-69" d="M895.86,191.75c-22.21,2.52-44.94-2.28-70.37,3.95,16.53,16.26,41.15-4.12,52.5,16.54-2.67,4.23-6.87,5.36-11.3,4.61-39.89-6.8-71.29,8.63-98.03,36.85-6.07,6.41-12.86,12.08-22.85,8.4-4.57-5.15-14.59-7.22-6.06-18.17,36-46.21,107.28-78.26,156.12-52.18Z"/>
  <path class="cls-10" d="M835.43,997.04c20.79,26.76,55.16,15.78,81.08,28.88,9.45,4.78,17.88,9.02,25.09,18.93-20.2,8.67-37.62-1.6-55.28-1.5-16.61.1-23.55,3.07-20.93,22.34,3.13,22.99,3.69,46.88-7.9,68.74-.28-22.69-.82-45.38-.75-68.07.04-14.2-5.39-31.75,22.89-32.18-21.64-9.75-46.2-8.73-44.21-37.15Z"/>
  <path class="cls-30" d="M730.3,964.81c25.86-17.22,51.08-36.19,85.57-32.76-1.56,16.42-21.26,17.24-22.67,31.65-6.47,8.91-12.15,18.19-16.79,28.29-6,13.08-15.48,17.81-28.4,7.76-4.42-12.38-24.24-17-17.72-34.94Z"/>
  <path class="cls-27" d="M745.8,262.1c7.01-1.43,12.21-4.75,17-10.66,30.03-37.08,68.08-51.7,115.17-39.2,20.5,9.36,38.61,21.45,48.66,42.7-1.13,3.89-3.48,6.63-7.41,7.89-11.08-.48-15.79-10.19-23.04-16.12-43.24-35.37-98.58-22.34-121.73,28.87-2.35,3.61-5.75,4.42-9.74,3.61-1.01-.73-2.03-1.47-3.04-2.2.67-11.32-11.72-8.72-15.89-14.88Z"/>
  <path class="cls-26" d="M750.56,996.55c12.56,9.14,17.61,1.52,22.24-9.29,4.21-9.83,6.36-22.02,20.41-23.56-1.88,12.74,4.7,14.02,14.61,10.76,2.09,5.32,4.19,10.63,6.28,15.95q-35.36-2.39-26.13,25.31c-4.31,3.29-13.25,4.74-6.84,12.94,6.07,7.76,7.89,16.72,8.38,28.06-19.41-22.12-42.73-38.94-66.78-54.8,6.82-3.11,7.31-9.08,6.97-15.42,10.91-4.85,14.73,5,20.87,10.05Z"/>
  <path class="cls-71" d="M581.82,932.72c32.58-9.43,50.21,23.66,78.79,27.77-21.38,6.11-43.69,3.24-64.39,12.06-9.18,3.91-24.16,7.95-31.43-3.19-6.94-10.65,7.83-17.19,10.93-26.45-2.08-5.85-2.94-10.98,6.1-10.18Z"/>
  <path class="cls-77" d="M969.89,943.96c-18.54.16-31.95-12.39-47.49-19.62-2.72-1.26-6.59-3.89-4.1-8.12,3.73-6.34,9.86-11.96,16.88-9.9,20.43,6,41.14,6.04,62.02,5.99,6.83-.02,11.63,3.66,12.51,10.81.71,5.79-2.34,10.02-7.14,12.85-10.04,5.92-21.14,7.72-32.68,8Z"/>
  <path class="cls-57" d="M740.56,799.63c4.8.76,11.16-.98,11.4,7.09.25,8.5-6.13,9.09-12.19,10.74-32.62,8.89-65.76,10.92-99.32,8.16-9.29-13-3.8-15.54,9.6-15.16,30.63.85,61.15-.48,90.51-10.82Z"/>
  <path class="cls-82" d="M402.56,1043.98c-3.69-3.56-7.37-7.12-11.06-10.68-16.84-25.48,7.84-28.26,20.55-37.6,2.28-1.28,4.52-2.51,7.3-2.46,9.9.19,22.21-6.18,27.95,6.79,5.69,12.84-3.29,21.25-12.32,28.77-11.4,3.71-16.76,20.49-32.42,15.17Z"/>
  <path class="cls-65" d="M429.19,1025.54c4.43-8.28,21.07-11.27,13.62-24.14-6.78-11.71-20.48-3.14-30.75-5.7,2-2.06,4-4.12,6-6.18,35.87-4.24,44.69,7.06,30.58,40.3-4,9.42-9.85,18.15-15.62,26.68-6.6,9.77-13.48,9.58-19.34-1.11.46-12.4,13.12-18.46,15.51-29.85Z"/>
  <path class="cls-51" d="M986.87,614.45c7.57-7.96,2.66-16.99,2.21-25.64,3.21-7.93,9.86-7.04,16.41-6.38,13.06,19.39,21.05,40.47,21.35,64.1-5.53-.41-11.39-2.28-10.7-8.47,2.63-23.8-13.2-23.61-29.26-23.61Z"/>
  <path class="cls-41" d="M644.9,488.14c26.42-33.92,49.2-33.78,63.28.39-3.56,1.44-7.13,2.89-10.69,4.33-9.75-7.06-19.13-9.84-29.34-.04-4.47,4.3-9.71,10.14-17.58,5.67-.49-4.22-1.35-8.23-5.67-10.35Z"/>
  <path class="cls-63" d="M650.57,498.49c9-6.49,14.9-17.43,26.61-19.89,11.27-2.36,18.3,2.72,20.3,14.26,0,0-.42-.29-.42-.29-20.19,6.97-30.5,26.51-47.61,37.41-18.53-11.16,1.3-20.98,1.11-31.49Z"/>
  <path class="cls-61" d="M677.9,790.19c17.68-39.2,40.72-14.93,64.42-8.18-22.01,6-41.99,9.02-64.42,8.18Z"/>
  <path class="cls-53" d="M666.58,842.57c17.05-8.12,35.15-4.08,52.85-4.54,5.56,11.82-3.86,15.1-11.17,15.34-17.22.56-23.4,13.11-30.98,24.7-17.35-4.98-9.59-19.63-11.75-30.47.89-1.57,1.24-3.24,1.05-5.04Z"/>
  <path class="cls-56" d="M776.16,403.15c-3.08,2.19-6.16,4.38-9.25,6.56-10.99-9.56-24.39-6.14-36.99-6.75-10.19-.5-21.01,1.44-27.98-8.95,19.83-4.84,41.68,6.74,60.38-7.38,5.12-1.13,8.87,1.36,12.34,4.65,2.29,3.72,6.33,7.26,1.49,11.88Z"/>
  <path class="cls-8" d="M856,1159.38c-.3,4.27.44,8.96-1.07,12.74-6.22,15.54-3.76,24.37,15.18,25.88,9.98.79,19.64,5.59,29.44,8.58-7.85.26-15.71.98-23.53.68-11.25-.43-25.22.57-28.92-12.51-3.4-12.02-4.95-26.39,8.91-35.38Z"/>
  <path class="cls-5" d="M696.82,499.97c1.33,4,3.34,11.04-.44,11.34-16.39,1.31-25.27,11.21-33.45,23.68-1.77,2.7-5.9-1.11-7.63-4.25,9.94-15.52,10.9-43.16,41.52-30.77Z"/>
  <path class="cls-6" d="M703.73,995.15c-6.35,12.19,12.79,14.3,8.84,26.85-13.75-2.81-28.73-6.88-34.87-20.68-4.34-9.76,10.92-4.36,14.29-10.21,5.11-2.13,9.07-.92,11.74,4.04Z"/>
  <path class="cls-60" d="M1195.57,630.9c5.9-4.02,3.1-10.75,4.98-16.02,10.1,25.61,14.29,52.33,15.03,79.7-3.13-3.48-6.25-6.96-9.38-10.44-.8-18.3-5.32-35.85-10.63-53.25Z"/>
  <path class="cls-85" d="M888.03,689.12c4.38,17.86-7.85,42.61-23.62,47.82,6.83-18.89,15.59-37.3,14.2-58.19,3.14,3.46,6.28,6.92,9.43,10.37Z"/>
  <path class="cls-39" d="M581.82,932.72c-2.03,3.39-4.06,6.79-6.1,10.18-17.54-2.52-20.66,20.34-36.53,20.76,8.28-20.04,22.78-33.82,42.54-42.32.03,3.79.06,7.59.09,11.38Z"/>
  <path class="cls-22" d="M750.56,996.55c-6.96-3.35-13.91-6.71-20.87-10.06-22.34-7.85-11.56-14.79.61-21.69,1.27,14.08,20.24,16.87,20.26,31.74Z"/>
  <path class="cls-9" d="M696.82,499.97c-26.2-6.42-28.78,19.03-41.52,30.77-1.94-.25-3.89-.5-5.83-.75,10.82-18.89,18.78-41.41,47.6-37.41-.08,2.47-.16,4.93-.24,7.4Z"/>
  <path class="cls-85" d="M830.45,652.19c8.54,8.09,18.98-14.82,27.01,1.65-13.45,7.25-27.52,12.55-42.9,13.77,4.22-6.25,13.55-7.23,15.89-15.43Z"/>
  <path class="cls-27" d="M761.65,298.16c-11.96-4.92-22.28-12.29-31.48-21.29,10.52-2.41,20.99,5.72,31.52.11,0,0-.05-.04-.05-.04,5.27,7.07,6.49,14.14,0,21.22Z"/>
  <path class="cls-29" d="M540.05,906.4c-1.8,4.69-5.72,5.62-10.11,5.68-.4-7.76-.8-15.52-1.2-23.29.5-7.08,5-8.87,11.17-8.43.05,8.68.1,17.36.15,26.04Z"/>
  <path class="cls-67" d="M683.55,524.6c5.19.5,8.08,3.1,7.1,8.54-.92,5.14-1.69,10.84-8.72,11-4.74.11-5.42-4.07-5.72-7.37-.51-5.58.95-10.51,7.33-12.17Z"/>
  <path class="cls-28" d="M429.19,1025.54c10.25,17.96-10.72,19.7-15.51,29.85-3.71-3.8-7.42-7.61-11.12-11.41,8.88-6.15,17.76-12.29,26.63-18.44Z"/>
  <path class="cls-42" d="M653.19,1059.67c7.37,4.03,24.62.65,22.35,10.71-2.93,12.99-20.11,13.84-33.09,14.93-8.61.72-17.61-2-15.62-12.17,2.58-13.12,15.57-11.56,26.35-13.47Z"/>
  <path class="cls-15" d="M694.4,1037.77c-17.3,3.25-30.67,1.1-43.9-2.3-5.89-1.51-12.64-3.63-11.23-11.57,1.58-8.89,8.97-9.74,16.22-8.48,14.57,2.53,27.13,8.65,38.91,22.35Z"/>
  <path class="cls-31" d="M990.45,795.24c6.19,7.06,17.93-.5,23.35,11.33-20.53,7.75-48.49,8.38-45.83,41.77-18.66-13.04-20.77-25.36-9.55-46.53,16.04-30.26,47.98-42.77,79.64-30.61-15.56,8.92-36.91,5.74-47.61,24.04Z"/>
  <path class="cls-46" d="M919.77,261.88c2.29-2.31,4.58-4.62,6.87-6.93,1.41.22,2.82.48,4.21.78,19.79,46.77,26.4,91.68-10.88,134.73-16.82,19.42.78,33.29,14.53,45.88,10.22,3.72,11.86,13.99,16.66,21.84,7.81,25.59,29.98,44.41,33.86,71.86-7.31,14.54-5.78,29.49-2.11,44.54-13.85-3.62-29.18,2.67-42.22-6.35,4.21-7.34,15.43-7.97,16.93-17.82,3.62-23.47-13.79-39.38-21.15-58.86-5.28-11.9-16.39-20.1-20.81-32.54-3.97-16.56-25.38-21.25-26.88-39.49-17.37-19.42-34.73-38.83-52.1-58.25,11.69-10.44,21.93.62,32.84,2.13,6.96,2.06,12.81,6.16,18.73,10.1,14.81,8.74,20.88-2.17,26.15-12.4,12.2-23.7,11.36-48.92,7.15-74.34-1.36-8.24-8.16-16.09-1.79-24.89Z"/>
  <path class="cls-20" d="M982.92,574.58c-14.86-15.29-14.1-31.52,2.1-44.54,10.06,16.2,16.15,33.95,20.47,52.39-3.74,6.57-11.93,1.72-16.41,6.38-2.06-4.74-4.11-9.49-6.17-14.24Z"/>
  <path class="cls-66" d="M951.16,458.18c-10.39-3.59-12.68-13.36-16.66-21.85,19.29-3.2,17.76,9.48,16.66,21.85Z"/>
  <path class="cls-20" d="M962.46,552.42c1.53,17.37-11.46,14.74-21.76,15.8-28.56-4.08-49-21.76-71.6-44.74,1.77,46.56-6.4,86.87-38.72,118.37-18.43,14.08-38.43,14.01-58.4,4.81-21.26-9.79-27.09-29.06-26.26-50.48,1.28-33.16,8.08-64.78,33.43-88.81,20.82-19.75,43.14-22.53,66.63-9.65,8.85,10.71,18.13.27,27.19.56,15.71.24,19.69,16.86,31.55,22.49,16.2,16.26,40.49,17.72,57.94,31.66Z"/>
  <path class="cls-52" d="M868.29,365.05c-12.03,11.23-20.16-10.18-31.61-3.78-25.01-21.04-50.02-42.07-75.03-63.11,0-7.07,0-14.14,0-21.22,3.43-.06,6.86-.12,10.3-.18,4.78-3.13,8.74-.31,12.83,1.72,5.78,3.62,11.6,7.2,16.85,11.61,9.21,8.38,17.3,17.95,27.21,25.6,15.3,11.14,29.85,23.06,40.56,38.99,1.31,3.63,1.22,7.12-1.1,10.36Z"/>
  <path class="cls-72" d="M772.35,392.84c-3.34-2.07-6.68-4.14-10.03-6.21-22.85-19.58-35.26-48.45-59.49-66.81,4.66-15.35,11.06-6.41,17.2-1.23,25.7,17.83,50.36,36.75,66.54,64.41-3.49,5.09-8.25,8.33-14.22,9.84Z"/>
  <path class="cls-79" d="M888.78,419.52c11.68,11.33,24.69,21.55,31.23,37.2-3.16,3.21-6.36,3.04-9.62.15-20-19.27-40.64-33.82-71.33-22.79-13.79,4.96-22.25-5.64-24.82-19.52,23.98,14.61,48.99,13.89,74.54,4.96Z"/>
  <path class="cls-20" d="M772.35,392.84c.55-9.34,6.83-10.39,14.22-9.84,5.02,7.56,16.51,9.65,17.44,20.66-1.44,7.68,3.54,18.84-9.59,20.46-15.74,1.95-8.13-17.42-18.25-20.97-1.27-3.44-2.54-6.87-3.81-10.31Z"/>
  <path class="cls-76" d="M720.04,318.58c-5.8-.52-12.02-6.94-17.19,1.23-11.12-2-18.03-8.79-23.13-21.26,16.23,3.98,31.46,5.08,40.32,20.03Z"/>
  <path class="cls-78" d="M961.16,731.03c-8.69,9.18-16.76,19.24-30.31,21.62,7.17-11.32,13.32-24.06,30.31-21.62Z"/>
  <path class="cls-62" d="M910.39,456.87c3.21-.05,6.41-.1,9.62-.15,5.17,11.63,17.76,18.52,20.35,31.8-11.6,5.69-12.8,26.54-31.64,21.68-1.48-2.38-1.44-4.73.11-7.06.52-15.43,1.04-30.85,1.56-46.28Z"/>
  <path class="cls-68" d="M908.83,503.14c.31,2.2.62,4.4.94,6.6,2.63,9.24-5.4,10.89-10.45,14.66-12.72-4.74-15.2-19.8-26.35-26.12-1.76-6.64-15.84-10.19-7.44-18.37,6.87-6.69,13.22,4.19,19.99,6.01,10.54,2.84,8.21,21.83,23.32,17.22Z"/>
  <path class="cls-58" d="M677.28,878.07c-2.89-20.33.64-34.79,26.5-30.5,7.15,1.19,14.17-.26,15.66-9.54,7.5-.92,17.66-5.97,21.52,1.75,3.69,7.38-2.43,15.74-7.77,23.23-14.88,20.86-34.57,20.17-55.91,15.06Z"/>
  <path class="cls-1" d="M781.66,281.34c-3.24-1.52-6.47-3.05-9.72-4.57-8.14-9.45-.91-15.88,4.48-22.63,35.37-44.29,95-46.01,132.88-3.85,3.48,3.87,6.98,7.73,10.46,11.6,16.48,36.22,18.79,72.42-1.47,107.97-14.3,25.08-18.27,25.16-38.39,3.39,29.77-34.96,5.61-70.92,1.1-106.2-1.42-11.13-10.64-3.69-16.52-.97-11.18,5.17-22.43,17.22-33.46-.23-2.62-11.09-6.01-20.14-18.07-7-10.37,7.6-16.45,21.18-31.3,22.5Z"/>
  <path class="cls-64" d="M781.66,281.34c9.02-8.67,18.04-17.34,27.06-26.01,10.23-4.89,19.97-7.62,26,5.92,1.51,8.98,5.2,12.04,13.92,6.32,10.8-7.09,22.14-13.36,36.87-22.14,6.26,37.42,12.79,72.79,17.85,108.36,2.41,16.96-17.03,11.17-23.44,19.47-3.88-2.75-7.76-5.48-11.63-8.21-.52-3.09-1.05-6.17-1.58-9.26-6.52-10.2-6.09-21.67-6.44-33.13-.74-24.3-.93-24.31-23.01-14.67-3.24,1.42-6.5,2.63-10.09,2.76-11.21-3.59-13.47-22.01-29.43-17.76-5.75-3.35-12.93-4.73-16.08-11.66Z"/>
  <path class="cls-54" d="M899.31,524.4c-.51-7.73,7.3-9.54,10.45-14.67,13.82-1.85,10.08-29.02,30.6-21.22,8.41,20.94,32.71,36.39,22.1,63.9-24.13-2.4-45.51-10.98-63.15-28.02Z"/>
  <path class="cls-81" d="M767.62,625.73c-13.88-35.78-5.05-83.27,19.92-107.01,23.29-22.16,50.22-19.14,58.68,6.58-46.87,10.71-67.03,41.85-68.06,88.13-.13,5.76-2.07,12.47-10.53,12.3Z"/>
  <path class="cls-12" d="M850.83,546.89c-.37,5.68,7.94,14.34-5.34,15.6-21.41-15.54-28.74,10.5-43.45,14.72-6.41,14.24-13.24,28.43-4.88,44.3,4.89,3.57,9.85,8.62,6.38,14.16-3.28,5.25-10.01,4.33-15.38.68l.45-.77c-19.19-9.9-11.13-27.95-10.23-41.82,1.75-26.93,11.68-51.13,40.03-61.47,14.76-5.39,27.7-3.75,32.42,14.6Z"/>
  <path class="cls-7" d="M850.83,546.89c-26.95-21.62-58.41-7.09-66.5,32.28-3.83,18.62-5.12,38.23,4.28,56.41-8.58.09-17.69,1.28-20.99-9.85,11-6.95,3.67-17.35,4.12-25.83,2.57-48.09,28.47-74.58,74.48-74.59,17.36,3.81,9.35,13.05,4.61,21.59Z"/>
  <path class="cls-49" d="M802.03,577.2c16.14-29.45,23.05-31.79,43.46-14.72-5.5.3-11.47-.92-15.36,4.68-.51,8.71-3.91,16.02-10.56,21.76-5.72-4.09-8.99-11.84-17.53-11.72Z"/>
  <path class="cls-55" d="M819.56,588.92c-1.36-9.63-1.27-18.54,10.57-21.76,7.38,12.55,11.13,23.33-10.57,21.76Z"/>
  <path class="cls-49" d="M788.16,636.35c17.77,3.99,10.54-7.15,8.99-14.85,7.38,1.85,14.96,3.36,19.52,12.35-9.32,6.15-17.7,13.85-28.51,2.5Z"/>
  <path class="cls-95" d="M825.22,308.35c13.71-4.67,24.64-25.97,37.08-18.32,10.71,6.59,3.15,27.53,4.01,42.09.47,7.87.29,15.78.4,23.67-16.57-9.33-28.06-24.34-41.56-37.11-2.99-3.46-3.32-6.91.06-10.34Z"/>
  <path class="cls-90" d="M825.22,308.35c-.02,3.45-.04,6.89-.06,10.34-10.94-6.64-20.79-14.44-27.42-25.69,6.84-2.84,8.23-13.34,18.22-12.73,3.08,9.35,6.17,18.71,9.25,28.08Z"/>
  <path class="cls-70" d="M834.72,261.25c-7.71-6.18-16.94-5.69-26-5.92,4.26-8.17,11.79-16.12,19.67-14.55,8.25,1.65,6.91,12.6,6.33,20.47Z"/>
  <path class="cls-88" d="M497.29,313.6s42.36-66.33,237.97-105.32l-178.61-108.28-75.88,204.44,16.52,9.15Z"/>
  <path class="cls-88" d="M732.7,201.86s175.42-163.1,340.8,96.26l54.63-111.02L830.37,38.16l-97.67,163.7Z"/>
  <path class="cls-88" d="M256.17,760.82s-2.5,410.08,491.66,486.41l-149.98,87.78L103.17,876.14l153-115.32Z"/>
  <polygon class="cls-88" points="1073.5 298.12 1117.46 409.71 1200.29 414.76 1178.97 304.44 1104.65 243.67 1073.5 298.12"/>
  <path class="cls-80" d="M735.26,208.28s25.27-44.47,51.31-52.58-35.47,0-35.47,0l-15.84,52.58Z"/>
</svg>